HIERARCHY
ROOT Hips
{
	OFFSET 0.000000 0.000000 0.000000 
	CHANNELS 6 Xposition Yposition Zposition Zrotation Yrotation Xrotation
	JOINT LeftUpLeg
	{
		OFFSET 1.363060 -1.794630 0.839290 
		CHANNELS 3 Zrotation Yrotation Xrotation
		JOINT LeftLeg
		{
			OFFSET 2.448110 -6.726130 0.000000 
			CHANNELS 3 Zrotation Yrotation Xrotation
			JOINT LeftFoot
			{
				OFFSET 2.562200 -7.039590 0.000000 
				CHANNELS 3 Zrotation Yrotation Xrotation
				JOINT LeftToeBase
				{
					OFFSET 0.157640 -0.433110 2.322550 
					CHANNELS 3 Zrotation Yrotation Xrotation
					End Site
					{
						OFFSET 0.000000 0.000000 0.000000 
					}
				}
			}
		}
	}
	JOINT RightUpLeg
	{
		OFFSET -1.305520 -1.794630 0.839290 
		CHANNELS 3 Zrotation Yrotation Xrotation
		JOINT RightLeg
		{
			OFFSET -2.542530 -6.985550 0.000000 
			CHANNELS 3 Zrotation Yrotation Xrotation
			JOINT RightFoot
			{
				OFFSET -2.568260 -7.056230 0.000000 
				CHANNELS 3 Zrotation Yrotation Xrotation
				JOINT RightToeBase
				{
					OFFSET -0.164730 -0.452590 2.363150 
					CHANNELS 3 Zrotation Yrotation Xrotation
					End Site
					{
						OFFSET 0.000000 0.000000 0.000000 
					}
				}
			}
		}
	}
	JOINT Spine
	{
		OFFSET 0.028270 2.035590 -0.193380 
		CHANNELS 3 Zrotation Yrotation Xrotation
		JOINT Spine1
		{
			OFFSET 0.056720 2.048850 -0.042750 
			CHANNELS 3 Zrotation Yrotation Xrotation
			JOINT Neck1
			{
				OFFSET -0.054170 1.746240 0.172020 
				CHANNELS 3 Zrotation Yrotation Xrotation
				JOINT Head
				{
					OFFSET 0.104070 1.761360 -0.123970 
					CHANNELS 3 Zrotation Yrotation Xrotation
					End Site
					{
						OFFSET 0.000000 0.000000 0.000000 
					}
				}
			}
			JOINT LeftArm
			{
				OFFSET 3.362410 1.200890 -0.311210 
				CHANNELS 3 Zrotation Yrotation Xrotation
				JOINT LeftForeArm
				{
					OFFSET 4.983000 -0.000000 -0.000000 
					CHANNELS 3 Zrotation Yrotation Xrotation
					JOINT LeftHand
					{
						OFFSET 3.483560 -0.000000 -0.000000 
						CHANNELS 3 Zrotation Yrotation Xrotation
						JOINT LeftHandIndex1
						{
							OFFSET 0.715260 -0.000000 -0.000000 
							CHANNELS 3 Zrotation Yrotation Xrotation
							End Site
							{
								OFFSET 0.000000 0.000000 0.000000 
							}
						}
					}
				}
			}
			JOINT RightArm
			{
				OFFSET -3.136600 1.374050 -0.404650 
				CHANNELS 3 Zrotation Yrotation Xrotation
				JOINT RightForeArm
				{
					OFFSET -5.241900 -0.000000 -0.000000 
					CHANNELS 3 Zrotation Yrotation Xrotation
					JOINT RightHand
					{
						OFFSET -3.444170 -0.000000 -0.000000 
						CHANNELS 3 Zrotation Yrotation Xrotation
						JOINT RightHandIndex1
						{
							OFFSET -0.622530 -0.000000 -0.000000 
							CHANNELS 3 Zrotation Yrotation Xrotation
							End Site
							{
								OFFSET 0.000000 0.000000 0.000000 
							}
						}
					}
				}
			}
		}
	}
}
MOTION
Frames: 12
Frame Time: 0.041667
31.380824 18.201667 21.189493 -176.609656 1.795966 -175.772277 -11.177428 0.737597 -14.883785 1.804151 10.969416 29.784211 1.186053 -9.637429 -8.375229 0.058800 1.565000 4.304800 19.382313 -2.922544 -7.903514 -1.579448 -10.406081 27.238570 -1.673418 5.973766 -13.233717 -0.132000 -2.342000 6.451800 1.929167 2.304120 -2.530021 2.871214 1.306188 0.937205 3.129644 0.251527 23.715139 2.598600 -2.512500 15.008000 -93.394383 8.202836 20.685094 13.842487 -24.592330 -3.130838 0.162674 0.549756 -0.565233 -7.125000 0.000000 0.000000 78.962838 2.458454 16.703675 -16.389252 25.560480 -4.200331 0.397772 -0.069461 -12.083441 7.125000 0.000000 0.000000 
31.369593 18.197822 21.169965 -176.761759 1.645528 -175.764251 -11.397290 0.580468 -14.749811 1.793361 10.965664 29.761981 1.177610 -9.513793 -8.430898 0.110000 2.138700 5.889100 19.197632 -2.914786 -7.884423 -1.602731 -10.459678 27.394899 -1.668733 5.730859 -13.598029 -0.106000 -2.099300 5.780300 1.803484 2.552714 -2.504463 2.557048 1.428076 0.988203 3.197367 -0.084338 23.614846 2.614600 -2.598800 15.042200 -92.885642 7.982255 21.612674 14.072074 -24.871588 -3.211657 0.165018 0.541300 -0.731131 -7.125000 0.000000 0.000000 79.578855 2.367586 16.131489 -16.581765 25.805801 -4.291168 0.377823 -0.074414 -11.808589 7.125000 0.000000 0.000000 
31.359373 18.176371 21.152359 -176.921424 1.652077 -175.793960 -11.617971 0.456365 -14.576451 1.780455 10.958209 29.722880 1.174196 -9.445374 -8.505381 0.117200 2.206800 6.077700 19.041318 -2.374920 -7.600189 -1.625424 -10.528024 27.589149 -1.637264 5.234422 -14.110093 -0.063800 -1.630000 4.484300 1.671529 2.841323 -2.473589 2.239285 1.571290 1.021170 3.251282 -0.382804 23.559260 2.610800 -2.670200 15.109100 -92.319281 7.701610 22.666679 14.314710 -25.159530 -3.293877 0.162052 0.527004 -1.012928 -7.125000 0.000000 0.000000 80.175318 2.545252 15.433244 -16.541304 25.745182 -4.272766 0.354566 -0.081151 -11.165607 7.125000 0.000000 0.000000 
31.348850 18.164938 21.133134 -176.943430 1.670847 -175.829303 -11.685008 0.365133 -14.451889 1.781971 10.969509 29.738556 1.215733 -9.506412 -9.017557 0.054100 1.500600 4.127400 19.031652 -2.186405 -7.465840 -1.650881 -10.585592 27.765801 -1.627139 4.933348 -14.538307 -0.019300 -0.897100 2.465800 1.739772 2.692787 -2.549377 2.510562 1.489481 0.743833 3.166754 -0.032570 23.684707 2.593400 -2.591700 15.082500 -92.583319 8.135457 22.666802 14.668607 -25.637429 -3.432312 0.159678 0.528161 -1.517961 -7.125000 0.000000 0.000000 80.152613 2.220601 16.058077 -16.605248 25.826473 -4.299287 0.343135 -0.080797 -10.981734 7.125000 0.000000 0.000000 
31.334179 18.163825 21.110065 -176.796776 1.591322 -175.782700 -11.608876 0.211057 -14.409880 1.792552 10.989872 29.796345 1.271899 -9.516528 -9.696231 0.009900 0.644000 1.769700 19.126017 -2.535190 -7.664246 -1.679398 -10.634364 27.914349 -1.659915 5.028835 -14.752544 -0.001700 -0.266300 0.731600 1.739395 2.702495 -2.521972 2.405100 1.499334 0.896783 3.187706 0.025546 23.799325 2.624200 -2.573000 15.255200 -92.545823 7.927123 22.894236 14.915768 -25.953381 -3.528757 0.157610 0.528954 -1.997100 -7.125000 0.000000 0.000000 80.375210 2.091014 16.430594 -16.914803 26.213664 -4.439783 0.352553 -0.062803 -10.887993 7.125000 0.000000 0.000000 
31.319709 18.155224 21.085376 -176.533810 1.491238 -175.689579 -11.410132 0.144299 -14.417377 1.806415 10.997094 29.833509 1.303099 -9.727292 -9.862788 0.008400 0.592400 1.627800 19.324316 -2.856617 -7.897964 -1.711708 -10.689856 28.077316 -1.703636 5.294280 -14.800387 -0.000100 0.047300 -0.130000 1.638269 3.030913 -2.411445 1.917613 1.680817 1.344851 3.309288 -0.412151 23.728326 2.664300 -2.666500 15.431500 -91.972405 7.105893 23.876532 15.017261 -26.056870 -3.562446 0.151060 0.528354 -2.157384 -7.125000 0.000000 0.000000 81.001720 2.316912 15.910827 -17.170408 26.528305 -4.561358 0.370506 -0.067868 -10.764765 7.125000 0.000000 0.000000 
31.306455 18.145308 21.059777 -176.485009 1.342603 -175.636558 -11.370551 0.064361 -14.412551 1.812730 11.000896 29.843887 1.322212 -9.990767 -9.880483 0.027500 1.069900 2.941200 19.392582 -2.917716 -8.034927 -1.746234 -10.746133 28.280524 -1.680617 5.058891 -14.948830 -0.003500 0.383600 -1.053900 1.870143 2.593813 -2.612134 2.747186 1.446521 0.709051 3.192400 0.222170 23.612624 2.708500 -2.551600 14.875300 -92.898007 8.172617 23.052892 15.440852 -26.666418 -3.749066 0.142909 0.556713 -2.067334 -7.125000 0.000000 0.000000 80.451555 1.313534 17.138820 -17.235160 26.639200 -4.593886 0.376396 -0.079787 -10.757911 7.125000 0.000000 0.000000 
31.288950 18.137720 21.032154 -176.713692 1.209346 -175.610577 -11.712833 -0.176282 -14.296733 1.805204 11.001969 29.833808 1.341040 -10.037514 -10.148213 0.038900 1.272900 3.500000 19.074264 -2.931083 -8.151515 -1.792541 -10.830549 28.552938 -1.670064 4.865920 -15.150192 -0.004300 0.422400 -1.160700 1.793452 2.729108 -2.635992 2.617012 1.508057 0.635124 3.080009 0.053626 23.614776 2.593200 -2.596700 14.921900 -92.643266 8.180401 23.725670 15.841092 -27.167835 -3.910314 0.132486 0.559295 -2.310978 -7.125000 0.000000 0.000000 80.764458 1.279738 16.624348 -17.178357 26.558056 -4.564685 0.362922 -0.067026 -9.984792 7.125000 0.000000 0.000000 
31.270231 18.131851 21.004430 -176.821482 1.149018 -175.723635 -11.933731 -0.295840 -14.025046 1.793344 10.995299 29.786210 1.356256 -10.129696 -10.320334 0.025500 1.030000 2.831500 18.860272 -3.221645 -8.245798 -1.870999 -10.959066 28.956850 -1.727031 5.137743 -15.311921 -0.001800 0.276100 -0.758700 1.812333 2.707695 -2.632568 2.751826 1.494421 0.590775 3.005979 0.078520 23.621937 2.569800 -2.611600 14.924700 -92.732153 8.276679 23.902395 16.189915 -27.611230 -4.054566 0.132024 0.555237 -2.621320 -7.125000 0.000000 0.000000 80.742904 1.116472 16.631499 -17.205931 26.607000 -4.583696 0.337425 -0.092474 -9.800359 7.125000 0.000000 0.000000 
31.254548 18.126589 20.977718 -176.793456 1.083049 -175.874903 -11.991083 -0.186205 -13.756566 1.787104 10.982389 29.727601 1.360688 -10.396645 -10.209134 0.014200 0.769200 2.113900 18.826100 -3.552296 -8.358438 -1.970482 -11.128253 29.488078 -1.755165 5.256457 -15.431823 -0.002100 0.297000 -0.816000 1.824522 2.685062 -2.599292 2.798760 1.483442 0.625976 3.018641 -0.007283 23.585775 2.602600 -2.661800 14.904900 -92.721547 8.281466 24.098273 16.506663 -28.011826 -4.191330 0.136589 0.555336 -2.940675 -7.125000 0.000000 0.000000 80.883300 1.039786 16.416290 -17.271104 26.709036 -4.625897 0.315987 -0.142173 -9.813357 7.125000 0.000000 0.000000 
31.236234 18.120518 20.948577 -176.960323 1.045927 -175.936700 -12.277871 -0.121256 -13.536954 1.767785 10.957287 29.628691 1.357811 -10.528888 -10.152768 0.016800 0.837700 2.302300 18.556212 -3.530494 -8.497993 -2.094311 -11.337798 30.162718 -1.750264 5.187802 -15.491220 -0.002300 0.311700 -0.856600 1.756346 2.752105 -2.561784 2.675178 1.514067 0.725476 3.087710 -0.075910 23.600893 2.638900 -2.672200 14.958500 -92.543646 8.100126 24.370519 16.781501 -28.350045 -4.311482 0.133481 0.560358 -3.189627 -7.125000 0.000000 0.000000 81.223707 1.153525 15.941614 -17.295636 26.714381 -4.625903 0.316211 -0.070453 -9.596536 7.125000 0.000000 0.000000 
31.217515 18.109085 20.923180 -177.095835 1.090843 -175.917159 -12.525225 -0.055183 -13.377642 1.731033 10.904215 29.442144 1.370770 -10.574437 -10.308093 0.020000 0.913200 2.510100 18.327280 -3.182684 -8.722212 -2.247819 -11.591467 30.998439 -1.716030 4.985193 -15.459633 -0.000000 0.014900 -0.040900 1.701292 2.866682 -2.537727 2.577436 1.569670 0.798419 3.103854 -0.091110 23.557488 2.641400 -2.653200 14.946600 -92.423075 7.900684 25.044613 17.089653 -28.743412 -4.455803 0.137037 0.580172 -4.284552 -7.125000 0.000000 0.000000 81.435779 1.254962 15.703719 -17.347902 26.776483 -4.653058 0.329062 -0.098879 -9.759230 7.125000 0.000000 0.000000 
